# xmcd
#
# Track frame offsets: 
#        150
#        14563
#        29134
#        43882
#        57851
#        71733
#        85965
#        99654
#        111569
#        126383
#        138698
#        149982
#        163490
#        177133
#        190899
#        204922
#        218931
#        233740
#        247778
#        260280
#
# Disc length: 3646 seconds
#
# Revision: 0
# Processed by: cddbd v1.5.2PL0 Copyright (c) Steve Scherf et al.
# Submitted via: ExactAudioCopy v0.99pb4
#
DISCID=410e3c14
DTITLE=Frank Sinatra - Frank Sinatra Collection Disc 5
DYEAR=2007
DGENRE=Vocal
TTITLE0=Why Remind Me
TTITLE1=Mad About You
TTITLE2=That Lucky Old Sun
TTITLE3=Every Man Should Marry
TTITLE4=Just A Kiss Apart
TTITLE5=Wedding Of Lili Marlene
TTITLE6=If I Ever Love Again
TTITLE7=Bye Bye Baby
TTITLE8=Don't Cry Joe (Let Her Go, Let Her Go, Let Her Go)
TTITLE9=It All Depends On You
TTITLE10=Just One Way To Say I Love You
TTITLE11=Let's Take An Old Fashioned Walk (With Doris Day)
TTITLE12=The Hucklebuck
TTITLE13=It Happens Every Spring
TTITLE14=Night After Night
TTITLE15=The Right Girl For Me
TTITLE16=Bali Ha'i
TTITLE17=Some Enchanted Evening
TTITLE18=If You Stub Your Toe On The Moon
TTITLE19=Comme Si, Comme Sa
EXTD=
EXTT0=
EXTT1=
EXTT2=
EXTT3=
EXTT4=
EXTT5=
EXTT6=
EXTT7=
EXTT8=
EXTT9=
EXTT10=
EXTT11=
EXTT12=
EXTT13=
EXTT14=
EXTT15=
EXTT16=
EXTT17=
EXTT18=
EXTT19=
PLAYORDER=
